<svg width="56" height="56" viewBox="0 0 56 56" fill="none" xmlns="http://www.w3.org/2000/svg">
<path fill-rule="evenodd" clip-rule="evenodd" d="M46.3931 55.562C46.8948 55.562 47.4131 55.1655 47.5442 54.6808L55.9613 23.5508C56.0924 23.0658 55.8795 22.4116 55.4885 22.097L28.3239 0.230858C27.9326 -0.0838127 27.2997 -0.0754318 26.9171 0.249863L0.497453 22.7131C0.115148 23.0384 -0.0913042 23.7012 0.0391369 24.1863L8.24662 54.6805C8.37738 55.1652 8.89496 55.562 9.39707 55.562H46.3931ZM43.2975 51.3334C43.7993 51.3334 44.3176 50.9369 44.4486 50.4522L51.3324 24.9927C51.4635 24.5079 51.2506 23.8538 50.8596 23.5388L28.6234 5.64004C28.2321 5.32537 27.5992 5.33374 27.2166 5.65904L5.59138 24.0458C5.20908 24.3711 5.00263 25.0339 5.13339 25.5186L11.8439 50.4518C11.9743 50.9369 12.4922 51.3334 12.9943 51.3334H43.2975Z" fill="white"/>
<path d="M15.4906 51.7852C15.4906 51.7852 12.6318 35.7976 21.8783 28.9512C21.8783 28.9512 20.9611 32.3391 22.2316 33.8213C22.2316 33.8213 24.4901 30.2923 30.1183 27.9628C30.1183 27.9628 35.1485 26.2686 34.3018 19.2809C34.3018 19.2809 38.9603 27.6806 31.1957 30.8569C31.1957 30.8569 22.2316 33.8213 23.5022 40.3154C23.5022 40.3154 22.6198 41.127 19.9021 37.1387C19.9021 37.1387 14.82 43.7033 20.2551 54.2207L15.4906 51.7852Z" fill="white"/>
<path d="M25.833 55.562C25.833 55.562 17.3627 49.6329 27.1036 39.9626C27.1036 39.9626 27.5977 42.3627 29.2213 43.3508C29.2213 43.3508 27.6682 36.0097 34.5855 34.104C34.5855 34.104 38.891 33.0453 38.0442 24.081C38.0442 24.081 45.8085 38.1274 37.6912 45.4681C37.6912 45.4681 41.009 37.7038 38.8208 31.8453C38.8208 31.8453 38.6088 34.7394 35.2915 35.9392C35.2915 35.9392 28.8728 37.2098 31.9058 46.5268C31.9058 46.5268 29.2213 47.0917 26.8917 44.0565C26.8917 44.0565 21.8096 49.4213 27.0331 52.1738V55.562H25.833Z" fill="white"/>
</svg>
