<svg width="21" height="19" viewBox="0 0 21 19" fill="none" xmlns="http://www.w3.org/2000/svg">
<path d="M20.4375 3.46826H0.5625C0.234375 3.46826 0 3.23389 0 2.90576V1.40576C0 1.12451 0.234375 0.843262 0.5625 0.843262H20.4375C20.7188 0.843262 21 1.12451 21 1.40576V2.90576C21 3.23389 20.7188 3.46826 20.4375 3.46826ZM20.4375 10.9683H0.5625C0.234375 10.9683 0 10.7339 0 10.4058V8.90576C0 8.62451 0.234375 8.34326 0.5625 8.34326H20.4375C20.7188 8.34326 21 8.62451 21 8.90576V10.4058C21 10.7339 20.7188 10.9683 20.4375 10.9683ZM20.4375 18.4683H0.5625C0.234375 18.4683 0 18.2339 0 17.9058V16.4058C0 16.1245 0.234375 15.8433 0.5625 15.8433H20.4375C20.7188 15.8433 21 16.1245 21 16.4058V17.9058C21 18.2339 20.7188 18.4683 20.4375 18.4683Z" fill="white"/>
</svg>
