<svg width="24" height="21" viewBox="0 0 24 21" fill="none" xmlns="http://www.w3.org/2000/svg">
<path d="M21.375 12.2969C21.2578 12.7266 20.8672 13 20.4375 13H8.99219L9.26562 14.25H19.7344C20.3203 14.25 20.7891 14.8359 20.6328 15.4219L20.4375 16.3594C21.1797 16.7109 21.6875 17.4531 21.6875 18.3125C21.6875 19.5234 20.6719 20.5 19.5 20.5C18.2891 20.5 17.3125 19.5234 17.3125 18.3125C17.3125 17.7266 17.5469 17.1797 17.9375 16.75H9.77344C10.1641 17.1797 10.4375 17.7266 10.4375 18.3125C10.4375 19.5234 9.42188 20.5 8.25 20.5C7.03906 20.5 6.0625 19.5234 6.0625 18.3125C6.0625 17.5312 6.49219 16.8281 7.15625 16.4375L4.38281 3H1.6875C1.14062 3 0.75 2.60938 0.75 2.0625V1.4375C0.75 0.929688 1.14062 0.5 1.6875 0.5H5.67188C6.10156 0.5 6.49219 0.851562 6.60938 1.28125L6.96094 3H22.2734C22.8984 3 23.3281 3.58594 23.2109 4.17188L21.375 12.2969Z" fill="white"/>
</svg>
