<svg width="17" height="63" viewBox="0 0 17 63" fill="none" xmlns="http://www.w3.org/2000/svg">
<path d="M3.432 57.3239C3.432 57.7825 3.52267 58.1932 3.704 58.5559C3.88533 58.9079 4.14667 59.2065 4.488 59.4519C4.81867 59.6972 5.224 59.8839 5.704 60.0119C6.184 60.1292 6.72267 60.1879 7.32 60.1879C8.13067 60.1879 8.824 60.0919 9.4 59.8999C9.96533 59.6972 10.3973 59.3825 10.696 58.9559C10.9947 58.5292 11.144 57.9852 11.144 57.3239C11.144 56.8545 11.0907 56.3905 10.984 55.9319C10.8773 55.4625 10.728 54.9559 10.536 54.4119H12.568C12.7707 54.9132 12.92 55.4092 13.016 55.8999C13.112 56.3905 13.16 56.9399 13.16 57.5479C13.16 58.7212 12.92 59.6919 12.44 60.4599C11.9493 61.2172 11.2667 61.7772 10.392 62.1399C9.50667 62.5025 8.47733 62.6839 7.304 62.6839C6.44 62.6839 5.65067 62.5665 4.936 62.3319C4.21067 62.0972 3.58667 61.7559 3.064 61.3079C2.54133 60.8492 2.136 60.2892 1.848 59.6279C1.56 58.9559 1.416 58.1879 1.416 57.3239C1.416 56.7585 1.49067 56.1932 1.64 55.6279C1.77867 55.0519 1.97067 54.5025 2.216 53.9799L4.184 54.7639C3.98133 55.1905 3.80533 55.6225 3.656 56.0599C3.50667 56.4865 3.432 56.9079 3.432 57.3239ZM4.088 48.1124C4.088 46.939 4.344 46.043 4.856 45.4244C5.35733 44.795 6.13067 44.4804 7.176 44.4804H13V46.1444L11.816 46.6084V46.6724C12.1253 46.9177 12.3813 47.1737 12.584 47.4404C12.7867 47.6964 12.9307 47.995 13.016 48.3364C13.112 48.667 13.16 49.0777 13.16 49.5684C13.16 50.0804 13.064 50.5444 12.872 50.9604C12.6693 51.3657 12.3653 51.6857 11.96 51.9204C11.544 52.155 11.0213 52.2724 10.392 52.2724C9.464 52.2724 8.78133 51.947 8.344 51.2964C7.896 50.6457 7.65067 49.6697 7.608 48.3684L7.56 46.8484H7.176C6.71733 46.8484 6.38133 46.971 6.168 47.2164C5.95467 47.451 5.848 47.7817 5.848 48.2084C5.848 48.635 5.912 49.051 6.04 49.4564C6.15733 49.8617 6.30667 50.267 6.488 50.6724L4.872 51.4564C4.62667 50.987 4.43467 50.4697 4.296 49.9044C4.15733 49.3284 4.088 48.731 4.088 48.1124ZM8.984 47.7764C9.00533 48.5444 9.144 49.0777 9.4 49.3764C9.656 49.675 9.992 49.8244 10.408 49.8244C10.7707 49.8244 11.032 49.7177 11.192 49.5044C11.3413 49.291 11.416 49.0137 11.416 48.6724C11.416 48.1604 11.2667 47.7284 10.968 47.3764C10.6587 47.0244 10.2267 46.8484 9.672 46.8484H8.952L8.984 47.7764ZM11.256 37.8801C11.256 37.6135 11.2293 37.3575 11.176 37.1121C11.1227 36.8668 11.0587 36.6215 10.984 36.3761H12.76C12.8667 36.6321 12.9573 36.9521 13.032 37.3361C13.1173 37.7095 13.16 38.1201 13.16 38.5681C13.16 39.0908 13.0747 39.5601 12.904 39.9761C12.7333 40.3815 12.44 40.7068 12.024 40.9521C11.5973 41.1868 11.0107 41.3041 10.264 41.3041H6.056V42.4401H5.048L4.248 41.1281L2.408 40.4401V38.9201H4.264V36.4721H6.056V38.9201H10.264C10.5947 38.9201 10.8453 38.8241 11.016 38.6321C11.176 38.4401 11.256 38.1895 11.256 37.8801ZM4.088 30.5586C4.088 29.3853 4.344 28.4893 4.856 27.8706C5.35733 27.2413 6.13067 26.9266 7.176 26.9266H13V28.5906L11.816 29.0546V29.1186C12.1253 29.364 12.3813 29.62 12.584 29.8866C12.7867 30.1426 12.9307 30.4413 13.016 30.7826C13.112 31.1133 13.16 31.524 13.16 32.0146C13.16 32.5266 13.064 32.9906 12.872 33.4066C12.6693 33.812 12.3653 34.132 11.96 34.3666C11.544 34.6013 11.0213 34.7186 10.392 34.7186C9.464 34.7186 8.78133 34.3933 8.344 33.7426C7.896 33.092 7.65067 32.116 7.608 30.8146L7.56 29.2946H7.176C6.71733 29.2946 6.38133 29.4173 6.168 29.6626C5.95467 29.8973 5.848 30.228 5.848 30.6546C5.848 31.0813 5.912 31.4973 6.04 31.9026C6.15733 32.308 6.30667 32.7133 6.488 33.1186L4.872 33.9026C4.62667 33.4333 4.43467 32.916 4.296 32.3506C4.15733 31.7746 4.088 31.1773 4.088 30.5586ZM8.984 30.2226C9.00533 30.9906 9.144 31.524 9.4 31.8226C9.656 32.1213 9.992 32.2706 10.408 32.2706C10.7707 32.2706 11.032 32.164 11.192 31.9506C11.3413 31.7373 11.416 31.46 11.416 31.1186C11.416 30.6066 11.2667 30.1746 10.968 29.8226C10.6587 29.4706 10.2267 29.2946 9.672 29.2946H8.952L8.984 30.2226ZM13 21.6224V24.0064H0.839999V21.6224H13ZM8.616 10.7154C9.34133 10.7154 9.98667 10.8167 10.552 11.0194C11.1173 11.2114 11.5973 11.494 11.992 11.8674C12.376 12.23 12.6693 12.6727 12.872 13.1954C13.064 13.718 13.16 14.31 13.16 14.9714C13.16 15.5794 13.064 16.1447 12.872 16.6674C12.6693 17.1794 12.376 17.622 11.992 17.9954C11.5973 18.3687 11.1173 18.662 10.552 18.8754C9.98667 19.078 9.34133 19.1794 8.616 19.1794C7.64533 19.1794 6.82933 19.0087 6.168 18.6674C5.496 18.326 4.984 17.8354 4.632 17.1954C4.28 16.5554 4.104 15.798 4.104 14.9234C4.104 14.102 4.28 13.3767 4.632 12.7474C4.984 12.118 5.496 11.622 6.168 11.2594C6.82933 10.8967 7.64533 10.7154 8.616 10.7154ZM8.616 16.7474C9.192 16.7474 9.67733 16.6887 10.072 16.5714C10.456 16.4434 10.7493 16.246 10.952 15.9794C11.144 15.7127 11.24 15.366 11.24 14.9394C11.24 14.5127 11.144 14.1714 10.952 13.9154C10.7493 13.6487 10.456 13.4567 10.072 13.3394C9.67733 13.2114 9.192 13.1474 8.616 13.1474C8.04 13.1474 7.56 13.2114 7.176 13.3394C6.792 13.4567 6.504 13.6487 6.312 13.9154C6.12 14.182 6.024 14.5287 6.024 14.9554C6.024 15.5847 6.24267 16.0434 6.68 16.3314C7.10667 16.6087 7.752 16.7474 8.616 16.7474ZM4.104 5.43312C4.104 4.89979 4.21067 4.41979 4.424 3.99312C4.63733 3.56646 4.95733 3.20379 5.384 2.90512V2.84112L4.264 2.64912V0.633122H13.016C13.848 0.633122 14.5467 0.798456 15.112 1.12912C15.6773 1.44912 16.104 1.93446 16.392 2.58512C16.6907 3.23579 16.84 4.04112 16.84 5.00112C16.84 5.61979 16.8027 6.19579 16.728 6.72912C16.6533 7.25179 16.52 7.76379 16.328 8.26512H14.424C14.5733 7.90246 14.696 7.53979 14.792 7.17712C14.8987 6.80379 14.9733 6.42512 15.016 6.04112C15.0693 5.64646 15.096 5.25179 15.096 4.85712C15.096 4.23846 14.9307 3.77979 14.6 3.48112C14.2693 3.17179 13.7733 3.01712 13.112 3.01712H12.936C12.7547 3.01712 12.568 3.01179 12.376 3.00112C12.184 2.97979 12.0133 2.96379 11.864 2.95312V3.01712C12.3227 3.31579 12.6533 3.67312 12.856 4.08912C13.0587 4.50512 13.16 4.97446 13.16 5.49712C13.16 6.53179 12.7653 7.34246 11.976 7.92912C11.176 8.50512 10.0667 8.79312 8.648 8.79312C7.688 8.79312 6.872 8.65979 6.2 8.39312C5.51733 8.12646 5 7.74246 4.648 7.24112C4.28533 6.72912 4.104 6.12646 4.104 5.43312ZM6.04 4.68112C6.04 5.05446 6.14133 5.36912 6.344 5.62512C6.536 5.87046 6.82933 6.05712 7.224 6.18512C7.608 6.30246 8.09333 6.36112 8.68 6.36112C9.55467 6.36112 10.2107 6.22246 10.648 5.94512C11.0747 5.66779 11.288 5.23579 11.288 4.64912C11.288 4.33979 11.2507 4.07312 11.176 3.84912C11.0907 3.62512 10.9573 3.44379 10.776 3.30512C10.584 3.15579 10.3387 3.04379 10.04 2.96912C9.74133 2.89446 9.37867 2.85712 8.952 2.85712H8.664C8.03467 2.85712 7.528 2.92112 7.144 3.04912C6.76 3.17712 6.48267 3.37446 6.312 3.64112C6.13067 3.90779 6.04 4.25446 6.04 4.68112Z" fill="white"/>
</svg>
