<svg width="28" height="25" viewBox="0 0 28 25" fill="none" xmlns="http://www.w3.org/2000/svg">
<path d="M10.2188 20.2305C10.5469 20.8867 11.2031 21.3086 12 21.3086H18V23.1836C18 23.8398 17.4844 24.3086 16.875 24.3086H1.125C0.46875 24.3086 0 23.8398 0 23.1836V1.43359C0 0.824219 0.46875 0.308594 1.125 0.308594H10.5V6.68359C10.5 7.33984 10.9688 7.80859 11.625 7.80859H18V10.0117L12 15.9648V19.8086C11.8125 19.8086 11.625 19.7148 11.5312 19.5273C10.9688 18.4023 9.375 18.1211 8.4375 18.8711L7.78125 16.9023C7.64062 16.4336 7.21875 16.1523 6.75 16.1523C6.23438 16.1523 5.8125 16.4336 5.67188 16.9023L4.82812 19.4805C4.73438 19.668 4.54688 19.8086 4.3125 19.8086H3.75C3.32812 19.8086 3 20.1836 3 20.5586C3 20.9805 3.32812 21.3086 3.75 21.3086H4.3125C5.20312 21.3086 5.95312 20.793 6.23438 19.9492L6.75 18.4492L7.5 20.8398C7.73438 21.4492 8.57812 21.4961 8.90625 20.9336L9.23438 20.1836C9.375 19.9492 9.60938 19.9023 9.75 19.9023C9.84375 19.9023 10.0781 19.9492 10.2188 20.2305ZM18 6.02734V6.30859H12V0.308594H12.2812C12.5625 0.308594 12.8438 0.449219 13.0781 0.636719L17.6719 5.23047C17.8594 5.46484 18 5.74609 18 6.02734ZM13.5 16.5742L21.0938 9.02734L24.2812 12.2148L16.6875 19.8086H13.5V16.5742ZM26.625 8.18359C27.0938 8.65234 27.0938 9.40234 26.625 9.87109L25.3594 11.1367L22.1719 7.94922L23.4375 6.68359C23.9062 6.21484 24.6562 6.21484 25.125 6.68359L26.625 8.18359Z" fill="#B2CA7A"/>
</svg>
