<svg width="28" height="24" viewBox="0 0 28 24" fill="none" xmlns="http://www.w3.org/2000/svg">
<path d="M10.2188 19.9219C10.5469 20.5781 11.2031 21 12 21H18V22.875C18 23.5312 17.4844 24 16.875 24H1.125C0.46875 24 0 23.5312 0 22.875V1.125C0 0.515625 0.46875 0 1.125 0H10.5V6.375C10.5 7.03125 10.9688 7.5 11.625 7.5H18V9.70312L12 15.6562V19.5C11.8125 19.5 11.625 19.4062 11.5312 19.2188C10.9688 18.0938 9.375 17.8125 8.4375 18.5625L7.78125 16.5938C7.64062 16.125 7.21875 15.8438 6.75 15.8438C6.23438 15.8438 5.8125 16.125 5.67188 16.5938L4.82812 19.1719C4.73438 19.3594 4.54688 19.5 4.3125 19.5H3.75C3.32812 19.5 3 19.875 3 20.25C3 20.6719 3.32812 21 3.75 21H4.3125C5.20312 21 5.95312 20.4844 6.23438 19.6406L6.75 18.1406L7.5 20.5312C7.73438 21.1406 8.57812 21.1875 8.90625 20.625L9.23438 19.875C9.375 19.6406 9.60938 19.5938 9.75 19.5938C9.84375 19.5938 10.0781 19.6406 10.2188 19.9219ZM18 5.71875V6H12V0H12.2812C12.5625 0 12.8438 0.140625 13.0781 0.328125L17.6719 4.92188C17.8594 5.15625 18 5.4375 18 5.71875ZM13.5 16.2656L21.0938 8.71875L24.2812 11.9062L16.6875 19.5H13.5V16.2656ZM26.625 7.875C27.0938 8.34375 27.0938 9.09375 26.625 9.5625L25.3594 10.8281L22.1719 7.64062L23.4375 6.375C23.9062 5.90625 24.6562 5.90625 25.125 6.375L26.625 7.875Z" fill="white"/>
</svg>
