<svg width="24" height="25" viewBox="0 0 24 25" fill="none" xmlns="http://www.w3.org/2000/svg">
<g clip-path="url(#clip0_266_381)">
<path d="M6.62 11.2002C8.06 14.0302 10.38 16.3402 13.21 17.7902L15.41 15.5902C15.68 15.3202 16.08 15.2302 16.43 15.3502C17.55 15.7202 18.76 15.9202 20 15.9202C20.55 15.9202 21 16.3702 21 16.9202V20.4102C21 20.9602 20.55 21.4102 20 21.4102C10.61 21.4102 3 13.8002 3 4.41016C3 3.86016 3.45 3.41016 4 3.41016H7.5C8.05 3.41016 8.5 3.86016 8.5 4.41016C8.5 5.66016 8.7 6.86016 9.07 7.98016C9.18 8.33016 9.1 8.72016 8.82 9.00016L6.62 11.2002Z" fill="#B2CA7A"/>
</g>
<defs>
<clipPath id="clip0_266_381">
<rect width="24" height="24" fill="white" transform="translate(0 0.410156)"/>
</clipPath>
</defs>
</svg>
