<svg width="72" height="72" viewBox="0 0 72 72" fill="none" xmlns="http://www.w3.org/2000/svg">
<path d="M58.5001 72.0001C57.9005 72.0005 57.3144 71.8213 56.8177 71.4855C56.3209 71.1496 55.9362 70.6727 55.7131 70.1161L53.1811 63.7771L46.8331 61.104C46.2886 60.8636 45.8272 60.4676 45.507 59.9658C45.1868 59.464 45.0219 58.8788 45.0331 58.2836C45.0443 57.6885 45.2311 57.1099 45.57 56.6205C45.909 56.1312 46.3849 55.7528 46.9381 55.5331L53.2021 53.16L55.7131 46.8841C55.944 46.3356 56.3316 45.8675 56.8274 45.5383C57.3232 45.2092 57.905 45.0336 58.5001 45.0336C59.0952 45.0336 59.677 45.2092 60.1728 45.5383C60.6685 45.8675 61.0562 46.3356 61.2871 46.8841L63.8101 53.1841L70.1101 55.7071C70.6597 55.9369 71.129 56.3242 71.4591 56.82C71.7892 57.3159 71.9653 57.8983 71.9653 58.494C71.9653 59.0898 71.7892 59.6722 71.4591 60.1681C71.129 60.6639 70.6597 61.0512 70.1101 61.2811L63.8101 63.8041L61.2871 70.104C61.0659 70.6629 60.682 71.1424 60.1851 71.4805C59.6881 71.8185 59.1011 71.9996 58.5001 72.0001ZM30.0001 63.0001C28.704 63.0156 27.4377 62.6111 26.3908 61.8469C25.3438 61.0828 24.5724 60.0002 24.1921 58.7611L19.3501 43.6201L4.16109 38.5381C2.93518 38.1283 1.87124 37.3395 1.12295 36.2855C0.374659 35.2316 -0.0192531 33.967 -0.00189117 32.6746C0.0154707 31.3821 0.443207 30.1286 1.21954 29.0952C1.99587 28.0617 3.08061 27.3017 4.31709 26.9251L19.3861 22.3231L24.4621 7.16105C24.8395 5.91567 25.6202 4.83106 26.6813 4.07782C27.7425 3.32459 29.0239 2.94545 30.3241 3.00005C31.6204 3.00181 32.8812 3.42334 33.918 4.20155C34.9547 4.97976 35.7115 6.07279 36.0751 7.31705L40.6711 22.3621L55.7611 27.1921C56.9782 27.6003 58.0364 28.3806 58.786 29.4228C59.5357 30.4649 59.939 31.7163 59.939 33.0001C59.939 34.2838 59.5357 35.5352 58.786 36.5773C58.0364 37.6195 56.9782 38.3998 55.7611 38.8081L40.6441 43.6441L35.8081 58.7611C35.4278 60.0002 34.6564 61.0828 33.6094 61.8469C32.5624 62.6111 31.2962 63.0156 30.0001 63.0001ZM61.5001 21.0001C60.8313 21 60.1817 20.7765 59.6545 20.3651C59.1272 19.9536 58.7526 19.3778 58.5901 18.7291L57.5191 14.4391L53.2201 13.2841C52.5739 13.1104 52.0044 12.7258 51.6019 12.1913C51.1995 11.6569 50.9872 11.0032 50.999 10.3342C51.0107 9.66527 51.2457 9.01943 51.6666 8.49938C52.0876 7.97933 52.6703 7.61491 53.3221 7.46405L57.5221 6.48905L58.5901 2.27105C58.7527 1.62237 59.1273 1.04661 59.6545 0.635208C60.1818 0.22381 60.8313 0.000366211 61.5001 0.000366211C62.1688 0.000366211 62.8184 0.22381 63.3456 0.635208C63.8729 1.04661 64.2475 1.62237 64.4101 2.27105L65.4721 6.52505L69.7261 7.59005C70.3748 7.75263 70.9505 8.12728 71.3619 8.65451C71.7733 9.18174 71.9968 9.83131 71.9968 10.5001C71.9968 11.1688 71.7733 11.8184 71.3619 12.3456C70.9505 12.8728 70.3748 13.2475 69.7261 13.4101L65.4721 14.4751L64.4101 18.7291C64.2476 19.3778 63.8729 19.9536 63.3457 20.3651C62.8185 20.7765 62.1689 21 61.5001 21.0001Z" fill="#B2CA7A"/>
</svg>
