<svg width="31" height="24" viewBox="0 0 31 24" fill="none" xmlns="http://www.w3.org/2000/svg">
<path d="M4.25 12C3.82812 12 3.5 11.6719 3.5 11.25V0.75C3.5 0.375 3.82812 0 4.25 0H14.75C15.125 0 15.5 0.375 15.5 0.75V11.25C15.5 11.6719 15.125 12 14.75 12H4.25ZM19.25 12C18.8281 12 18.5 11.6719 18.5 11.25V3.75C18.5 3.375 18.8281 3 19.25 3H26.75C27.125 3 27.5 3.375 27.5 3.75V11.25C27.5 11.6719 27.125 12 26.75 12H19.25ZM29.75 18H27.5V21H29.75C30.125 21 30.5 21.375 30.5 21.75V23.25C30.5 23.6719 30.125 24 29.75 24H1.25C0.828125 24 0.5 23.6719 0.5 23.25V21.75C0.5 21.375 0.828125 21 1.25 21H3.5V18H1.25C0.828125 18 0.5 17.6719 0.5 17.25V15.75C0.5 15.375 0.828125 15 1.25 15H29.75C30.125 15 30.5 15.375 30.5 15.75V17.25C30.5 17.6719 30.125 18 29.75 18ZM14 21V18H6.5V21H14ZM24.5 21V18H17V21H24.5Z" fill="white"/>
</svg>
