<svg width="30" height="25" viewBox="0 0 30 25" fill="none" xmlns="http://www.w3.org/2000/svg">
<path d="M3.75 12.3086C3.32812 12.3086 3 11.9805 3 11.5586V1.05859C3 0.683594 3.32812 0.308594 3.75 0.308594H14.25C14.625 0.308594 15 0.683594 15 1.05859V11.5586C15 11.9805 14.625 12.3086 14.25 12.3086H3.75ZM18.75 12.3086C18.3281 12.3086 18 11.9805 18 11.5586V4.05859C18 3.68359 18.3281 3.30859 18.75 3.30859H26.25C26.625 3.30859 27 3.68359 27 4.05859V11.5586C27 11.9805 26.625 12.3086 26.25 12.3086H18.75ZM29.25 18.3086H27V21.3086H29.25C29.625 21.3086 30 21.6836 30 22.0586V23.5586C30 23.9805 29.625 24.3086 29.25 24.3086H0.75C0.328125 24.3086 0 23.9805 0 23.5586V22.0586C0 21.6836 0.328125 21.3086 0.75 21.3086H3V18.3086H0.75C0.328125 18.3086 0 17.9805 0 17.5586V16.0586C0 15.6836 0.328125 15.3086 0.75 15.3086H29.25C29.625 15.3086 30 15.6836 30 16.0586V17.5586C30 17.9805 29.625 18.3086 29.25 18.3086ZM13.5 21.3086V18.3086H6V21.3086H13.5ZM24 21.3086V18.3086H16.5V21.3086H24Z" fill="#B2CA7A"/>
</svg>
