<svg width="30" height="24" viewBox="0 0 30 24" fill="none" xmlns="http://www.w3.org/2000/svg">
<path d="M29.25 16.5C29.625 16.5 30 16.875 30 17.25V18.75C30 19.1719 29.625 19.5 29.25 19.5H27C27 21.9844 24.9844 24 22.5 24C20.0156 24 18 21.9844 18 19.5H12C12 21.9844 9.98438 24 7.5 24C5.01562 24 3 21.9844 3 19.5H2.25C0.984375 19.5 0 18.5156 0 17.25V2.25C0 1.03125 0.984375 0 2.25 0H17.25C18.4688 0 19.5 1.03125 19.5 2.25V4.5H21.5625C22.125 4.5 22.7344 4.78125 23.1562 5.20312L27.7969 9.84375C28.2188 10.2656 28.5 10.875 28.5 11.4375V16.5H29.25ZM7.5 21.75C8.71875 21.75 9.75 20.7656 9.75 19.5C9.75 18.2812 8.71875 17.25 7.5 17.25C6.23438 17.25 5.25 18.2812 5.25 19.5C5.25 20.7656 6.23438 21.75 7.5 21.75ZM22.5 21.75C23.7188 21.75 24.75 20.7656 24.75 19.5C24.75 18.2812 23.7188 17.25 22.5 17.25C21.2344 17.25 20.25 18.2812 20.25 19.5C20.25 20.7656 21.2344 21.75 22.5 21.75ZM26.25 12V11.4375L21.5625 6.75H19.5V12H26.25Z" fill="white"/>
</svg>
