<svg width="30" height="25" viewBox="0 0 30 25" fill="none" xmlns="http://www.w3.org/2000/svg">
<path d="M29.25 16.8086C29.625 16.8086 30 17.1836 30 17.5586V19.0586C30 19.4805 29.625 19.8086 29.25 19.8086H27C27 22.293 24.9844 24.3086 22.5 24.3086C20.0156 24.3086 18 22.293 18 19.8086H12C12 22.293 9.98438 24.3086 7.5 24.3086C5.01562 24.3086 3 22.293 3 19.8086H2.25C0.984375 19.8086 0 18.8242 0 17.5586V2.55859C0 1.33984 0.984375 0.308594 2.25 0.308594H17.25C18.4688 0.308594 19.5 1.33984 19.5 2.55859V4.80859H21.5625C22.125 4.80859 22.7344 5.08984 23.1562 5.51172L27.7969 10.1523C28.2188 10.5742 28.5 11.1836 28.5 11.7461V16.8086H29.25ZM7.5 22.0586C8.71875 22.0586 9.75 21.0742 9.75 19.8086C9.75 18.5898 8.71875 17.5586 7.5 17.5586C6.23438 17.5586 5.25 18.5898 5.25 19.8086C5.25 21.0742 6.23438 22.0586 7.5 22.0586ZM22.5 22.0586C23.7188 22.0586 24.75 21.0742 24.75 19.8086C24.75 18.5898 23.7188 17.5586 22.5 17.5586C21.2344 17.5586 20.25 18.5898 20.25 19.8086C20.25 21.0742 21.2344 22.0586 22.5 22.0586ZM26.25 12.3086V11.7461L21.5625 7.05859H19.5V12.3086H26.25Z" fill="#B2CA7A"/>
</svg>
