<svg width="60" height="72" viewBox="0 0 60 72" fill="none" xmlns="http://www.w3.org/2000/svg">
<path d="M54.0479 71.9999C53.5849 72.0003 53.128 71.8935 52.7131 71.6879C52.2982 71.4823 51.9366 71.1834 51.6565 70.8147C51.3764 70.4459 51.1854 70.0174 51.0986 69.5625C51.0117 69.1077 51.0314 68.6389 51.1559 68.1929C51.5039 66.9359 51.8969 65.7689 52.2869 64.6199C56.1419 56.5679 52.8269 44.5709 48.5189 38.9579C44.8442 33.5275 42.6812 27.2168 42.2521 20.6739C41.8229 14.1311 43.1431 7.59187 46.0769 1.72794C46.4227 1.02127 47.0323 0.478704 47.7743 0.217149C48.5163 -0.0444052 49.3313 -0.00401756 50.0438 0.329611C50.7563 0.663239 51.3092 1.26341 51.5835 2.00081C51.8577 2.73821 51.8313 3.55383 51.5099 4.27194C49.0017 9.21695 47.8694 14.7454 48.2315 20.2783C48.5935 25.8112 50.4367 31.145 53.5679 35.7209C58.5929 42.1319 62.5259 57.0599 57.9689 66.5339C57.6149 67.5869 57.2549 68.6579 56.9339 69.8069C56.7579 70.4372 56.3806 70.9926 55.8596 71.3886C55.3385 71.7845 54.7023 71.9992 54.0479 71.9999ZM33.0479 71.9999C32.5849 72.0003 32.128 71.8935 31.7131 71.6879C31.2982 71.4823 30.9366 71.1834 30.6565 70.8147C30.3764 70.4459 30.1854 70.0174 30.0986 69.5625C30.0117 69.1077 30.0314 68.6389 30.1559 68.1929C30.5039 66.9359 30.8969 65.7689 31.2869 64.6199C35.1419 56.5679 31.8269 44.5709 27.5189 38.9579C23.8442 33.5275 21.6812 27.2168 21.2521 20.6739C20.8229 14.1311 22.1431 7.59187 25.0769 1.72794C25.4227 1.02127 26.0323 0.478704 26.7743 0.217149C27.5163 -0.0444052 28.3313 -0.00401756 29.0438 0.329611C29.7563 0.663239 30.3092 1.26341 30.5835 2.00081C30.8577 2.73821 30.8313 3.55383 30.5099 4.27194C28.0017 9.21695 26.8694 14.7454 27.2315 20.2783C27.5935 25.8112 29.4367 31.145 32.5679 35.7209C37.5929 42.1319 41.5259 57.0599 36.9689 66.5339C36.6149 67.5869 36.2549 68.6579 35.9339 69.8069C35.7579 70.4372 35.3806 70.9926 34.8596 71.3886C34.3385 71.7845 33.7023 71.9992 33.0479 71.9999ZM12.0479 71.9999C11.5849 72.0003 11.128 71.8935 10.7131 71.6879C10.2982 71.4823 9.93657 71.1834 9.65647 70.8147C9.37636 70.4459 9.18541 70.0174 9.09858 69.5625C9.01174 69.1077 9.03137 68.6389 9.15593 68.1929C9.50393 66.9359 9.89693 65.7689 10.2869 64.6199C14.1419 56.5679 10.8269 44.5709 6.51893 38.9579C2.84423 33.5275 0.68123 27.2168 0.252069 20.6739C-0.177092 14.1311 1.14306 7.59187 4.07693 1.72794C4.42272 1.02127 5.03228 0.478704 5.77427 0.217149C6.51627 -0.0444052 7.33131 -0.00401756 8.04382 0.329611C8.75632 0.663239 9.30925 1.26341 9.58348 2.00081C9.85771 2.73821 9.8313 3.55383 9.50993 4.27194C7.00175 9.21695 5.86939 14.7454 6.23146 20.2783C6.59353 25.8112 8.4367 31.145 11.5679 35.7209C16.5929 42.1319 20.5259 57.0599 15.9689 66.5339C15.6149 67.5869 15.2549 68.6579 14.9339 69.8069C14.7579 70.4372 14.3806 70.9926 13.8596 71.3886C13.3385 71.7845 12.7023 71.9992 12.0479 71.9999Z" fill="#B2CA7A"/>
</svg>
