<svg width="24" height="24" viewBox="0 0 24 24" fill="none" xmlns="http://www.w3.org/2000/svg">
<path d="M0 24L1.69627 17.8403C0.647564 16.0323 0.0974211 13.9848 0.103152 11.8916C0.103152 5.3327 5.46704 0 12.0516 0C15.2493 0 18.2521 1.23764 20.5043 3.48479C22.7622 5.73194 24.0057 8.72053 24 11.8973C24 18.4563 18.6361 23.789 12.0458 23.789H12.0401C10.0401 23.789 8.07449 23.2871 6.32664 22.3403L0 24ZM6.63037 20.1901L6.9914 20.4068C8.51575 21.308 10.2636 21.7814 12.0458 21.7871H12.0516C17.5243 21.7871 21.9828 17.3555 21.9828 11.903C21.9828 9.26236 20.9513 6.78137 19.0773 4.91065C17.2034 3.03992 14.7049 2.01331 12.0516 2.01331C6.57879 2.0076 2.12034 6.43916 2.12034 11.8916C2.12034 13.7567 2.64183 15.576 3.63897 17.1502L3.87392 17.5266L2.87106 21.1711L6.63037 20.1901Z" fill="white"/>
<path d="M0.418213 23.5836L2.05718 17.6349C1.04285 15.8954 0.509903 13.9163 0.509903 11.8973C0.515634 5.56645 5.69041 0.41626 12.0514 0.41626C15.1403 0.41626 18.0342 1.61398 20.2119 3.78128C22.3895 5.94858 23.5872 8.83451 23.5872 11.903C23.5872 18.2338 18.4067 23.3839 12.0514 23.3839H12.0457C10.1145 23.3839 8.21763 22.8992 6.53282 21.9866L0.418213 23.5836Z" fill="white"/>
<path d="M0 24L1.69627 17.8403C0.647564 16.0323 0.0974211 13.9848 0.103152 11.8916C0.103152 5.3327 5.46704 0 12.0516 0C15.2493 0 18.2521 1.23764 20.5043 3.48479C22.7622 5.73194 24.0057 8.72053 24 11.8973C24 18.4563 18.6361 23.789 12.0458 23.789H12.0401C10.0401 23.789 8.07449 23.2871 6.32664 22.3403L0 24ZM6.63037 20.1901L6.9914 20.4068C8.51575 21.308 10.2636 21.7814 12.0458 21.7871H12.0516C17.5243 21.7871 21.9828 17.3555 21.9828 11.903C21.9828 9.26236 20.9513 6.78137 19.0773 4.91065C17.2034 3.03992 14.7049 2.01331 12.0516 2.01331C6.57879 2.0076 2.12034 6.43916 2.12034 11.8916C2.12034 13.7567 2.64183 15.576 3.63897 17.1502L3.87392 17.5266L2.87106 21.1711L6.63037 20.1901Z" fill="white"/>
<path fill-rule="evenodd" clip-rule="evenodd" d="M9.06576 6.91818C8.84226 6.42198 8.60731 6.41058 8.39527 6.40487C8.22335 6.39917 8.02278 6.39917 7.82221 6.39917C7.62163 6.39917 7.30072 6.47331 7.02565 6.76989C6.75057 7.06647 5.98267 7.7851 5.98267 9.25088C5.98267 10.711 7.0543 12.1254 7.2033 12.325C7.35229 12.5246 9.27206 15.6216 12.3036 16.8136C14.8251 17.806 15.3408 17.6064 15.8852 17.5551C16.4297 17.5037 17.6503 16.8364 17.9024 16.1406C18.1488 15.4448 18.1488 14.8516 18.0743 14.7262C17.9998 14.6007 17.7993 14.5265 17.5013 14.3783C17.2033 14.23 15.7362 13.5113 15.4612 13.4087C15.1861 13.3117 14.9855 13.2604 14.7907 13.557C14.5901 13.8535 14.017 14.5208 13.8451 14.7205C13.6732 14.9201 13.4956 14.9429 13.1976 14.7946C12.8996 14.6463 11.9368 14.3326 10.7964 13.3174C9.90816 12.5303 9.30645 11.5551 9.13453 11.2585C8.96261 10.9619 9.11733 10.8022 9.26633 10.6539C9.39814 10.5227 9.56433 10.306 9.71332 10.1349C9.86232 9.96381 9.91389 9.83833 10.0113 9.63871C10.1087 9.43909 10.0629 9.26799 9.98839 9.1197C9.9139 8.97712 9.32937 7.50563 9.06576 6.91818Z" fill="#475131"/>
</svg>
