<svg width="24" height="25" viewBox="0 0 24 25" fill="none" xmlns="http://www.w3.org/2000/svg">
<path d="M0 24.4102L1.69627 18.2505C0.647564 16.4425 0.0974211 14.3949 0.103152 12.3018C0.103152 5.74286 5.46704 0.410156 12.0516 0.410156C15.2493 0.410156 18.2521 1.6478 20.5043 3.89495C22.7622 6.1421 24.0057 9.13069 24 12.3075C24 18.8664 18.6361 24.1991 12.0458 24.1991H12.0401C10.0401 24.1991 8.07449 23.6972 6.32664 22.7505L0 24.4102ZM6.63037 20.6003L6.9914 20.817C8.51575 21.7181 10.2636 22.1915 12.0458 22.1972H12.0516C17.5243 22.1972 21.9828 17.7657 21.9828 12.3132C21.9828 9.67251 20.9513 7.19153 19.0773 5.3208C17.2034 3.45008 14.7049 2.42346 12.0516 2.42346C6.57879 2.41776 2.12034 6.84932 2.12034 12.3018C2.12034 14.1668 2.64183 15.9862 3.63897 17.5604L3.87392 17.9368L2.87106 21.5813L6.63037 20.6003Z" fill="#B2CA7A"/>
<path d="M0.417969 23.9935L2.05694 18.0448C1.04261 16.3053 0.509659 14.3262 0.509659 12.3072C0.51539 5.97636 5.69017 0.826172 12.0512 0.826172C15.14 0.826172 18.034 2.02389 20.2117 4.19119C22.3893 6.35849 23.587 9.24442 23.587 12.3129C23.587 18.6437 18.4065 23.7939 12.0512 23.7939H12.0455C10.1142 23.7939 8.21739 23.3091 6.53258 22.3965L0.417969 23.9935Z" fill="#B2CA7A"/>
<path d="M0 24.4102L1.69627 18.2505C0.647564 16.4425 0.0974211 14.3949 0.103152 12.3018C0.103152 5.74286 5.46704 0.410156 12.0516 0.410156C15.2493 0.410156 18.2521 1.6478 20.5043 3.89495C22.7622 6.1421 24.0057 9.13069 24 12.3075C24 18.8664 18.6361 24.1991 12.0458 24.1991H12.0401C10.0401 24.1991 8.07449 23.6972 6.32664 22.7505L0 24.4102ZM6.63037 20.6003L6.9914 20.817C8.51575 21.7181 10.2636 22.1915 12.0458 22.1972H12.0516C17.5243 22.1972 21.9828 17.7657 21.9828 12.3132C21.9828 9.67251 20.9513 7.19153 19.0773 5.3208C17.2034 3.45008 14.7049 2.42346 12.0516 2.42346C6.57879 2.41776 2.12034 6.84932 2.12034 12.3018C2.12034 14.1668 2.64183 15.9862 3.63897 17.5604L3.87392 17.9368L2.87106 21.5813L6.63037 20.6003Z" fill="#B2CA7A"/>
<path fill-rule="evenodd" clip-rule="evenodd" d="M9.06747 7.32858C8.84397 6.83238 8.60901 6.82098 8.39698 6.81527C8.22506 6.80957 8.02449 6.80957 7.82392 6.80957C7.62334 6.80957 7.30243 6.88371 7.02735 7.18029C6.75228 7.47687 5.98438 8.1955 5.98438 9.66128C5.98438 11.1214 7.05601 12.5358 7.205 12.7354C7.354 12.935 9.27377 16.032 12.3053 17.224C14.8268 18.2164 15.3425 18.0168 15.8869 17.9655C16.4314 17.9141 17.652 17.2468 17.9041 16.551C18.1506 15.8552 18.1506 15.262 18.0761 15.1366C18.0016 15.0111 17.801 14.9369 17.503 14.7887C17.205 14.6404 15.7379 13.9217 15.4629 13.8191C15.1878 13.7221 14.9872 13.6708 14.7924 13.9674C14.5918 14.2639 14.0188 14.9312 13.8468 15.1309C13.6749 15.3305 13.4973 15.3533 13.1993 15.205C12.9013 15.0567 11.9385 14.743 10.7981 13.7278C9.90987 12.9408 9.30815 11.9655 9.13623 11.6689C8.96431 11.3723 9.11904 11.2126 9.26804 11.0643C9.39984 10.9331 9.56603 10.7164 9.71503 10.5453C9.86403 10.3742 9.9156 10.2487 10.013 10.0491C10.1104 9.84949 10.0646 9.67839 9.9901 9.5301C9.9156 9.38752 9.33108 7.91603 9.06747 7.32858Z" fill="#475131"/>
</svg>
