<svg width="22" height="15" viewBox="0 0 22 15" fill="none" xmlns="http://www.w3.org/2000/svg">
<path d="M21.1953 2.38281C21.6641 4.02344 21.6641 7.53906 21.6641 7.53906C21.6641 7.53906 21.6641 11.0156 21.1953 12.6953C20.9609 13.6328 20.2188 14.3359 19.3203 14.5703C17.6406 15 11 15 11 15C11 15 4.32031 15 2.64062 14.5703C1.74219 14.3359 1 13.6328 0.765625 12.6953C0.296875 11.0156 0.296875 7.53906 0.296875 7.53906C0.296875 7.53906 0.296875 4.02344 0.765625 2.38281C1 1.44531 1.74219 0.703125 2.64062 0.46875C4.32031 0 11 0 11 0C11 0 17.6406 0 19.3203 0.46875C20.2188 0.703125 20.9609 1.44531 21.1953 2.38281ZM8.8125 10.7031L14.3594 7.53906L8.8125 4.375V10.7031Z" fill="white"/>
</svg>
