<svg width="96" height="69" viewBox="0 0 96 69" fill="none" xmlns="http://www.w3.org/2000/svg">
<path d="M94.0865 11.3852C93.5437 9.34285 92.4741 7.47888 90.9846 5.97982C89.4951 4.48076 87.638 3.3992 85.5992 2.84338C78.0938 0.825196 48.0938 0.825195 48.0938 0.825195C48.0938 0.825195 18.0938 0.825196 10.5883 2.84338C8.54947 3.3992 6.69239 4.48076 5.2029 5.97982C3.71341 7.47888 2.64377 9.34285 2.10102 11.3852C0.0937502 18.9234 0.09375 34.6434 0.09375 34.6434C0.09375 34.6434 0.0937502 50.3634 2.10102 57.9016C2.64377 59.9439 3.71341 61.8079 5.2029 63.3069C6.69239 64.806 8.54947 65.8876 10.5883 66.4434C18.0938 68.4616 48.0938 68.4616 48.0938 68.4616C48.0938 68.4616 78.0938 68.4616 85.5992 66.4434C87.638 65.8876 89.4951 64.806 90.9846 63.3069C92.4741 61.8079 93.5437 59.9439 94.0865 57.9016C96.0938 50.3634 96.0938 34.6434 96.0938 34.6434C96.0938 34.6434 96.0938 18.9234 94.0865 11.3852Z" fill="#FF0302"/>
<path d="M38.2812 48.9173V20.3682L63.3721 34.6427L38.2812 48.9173Z" fill="#FEFEFE"/>
</svg>

